<svg width="281" height="32" viewBox="0 0 281 32" fill="none" xmlns="http://www.w3.org/2000/svg">
<g clip-path="url(#clip0_48_15)">
<path fill-rule="evenodd" clip-rule="evenodd" d="M31 17H1V31H31V17Z" fill="#40B6E0" fill-opacity="0.7"/>
<path fill-rule="evenodd" clip-rule="evenodd" d="M13 9V1L5 9H13Z" fill="#9AA7B0" fill-opacity="0.8"/>
<path fill-rule="evenodd" clip-rule="evenodd" d="M5 11V15H25V1H15V11H5Z" fill="#9AA7B0" fill-opacity="0.8"/>
<path fill-rule="evenodd" clip-rule="evenodd" d="M12.9455 22.0031C12.9455 21.2661 13.568 21 14.69 21C14.7007 21 15.4707 21 17 21V19C15.5253 19 14.7653 19 14.72 19C12.556 19 11 19.9183 11 21.9C11 23.6291 11.8391 24.381 13.9425 24.8322C15.4832 25.1626 15.9923 25.4573 15.9923 26.096C15.9923 26.7347 15.2769 27 13.9425 27C13.9212 27 13.1403 27 11.6 27V29C13.151 29 13.9318 29 13.9425 29C18 29 18 27 18 26.096C18 24.8322 17.0405 23.8414 15.3174 23.2937C13.5942 22.746 12.9455 22.74 12.9455 22.0031Z" fill="#231F20" fill-opacity="0.7"/>
<path fill-rule="evenodd" clip-rule="evenodd" d="M24 23L26.958 19H29V29H27V22.4L24 26L21 22.4V29H19V19H20.872L24 23Z" fill="#231F20" fill-opacity="0.7"/>
<path fill-rule="evenodd" clip-rule="evenodd" d="M7.3 25L5.99224 21.8L4.7 25H7.3ZM5.218 19H6.78L11 29H8.8L7.8 27H4.2L3.2 29H1L5.218 19Z" fill="#231F20" fill-opacity="0.7"/>
<path opacity="0.6" d="M50.6841 11.5947L45.3667 26H41.0483L48.541 7.22803H51.4414L50.6841 11.5947ZM55.7437 26L50.3618 11.5786L49.6045 7.22803H52.5371L60.0459 26H55.7437ZM55.5664 19.0229V22.1328H45.0122V19.0229H55.5664ZM72.3887 21.0371C72.3887 20.7041 72.3242 20.4033 72.1953 20.1348C72.0771 19.8662 71.8784 19.6245 71.5991 19.4097C71.3198 19.1948 70.9331 18.9907 70.439 18.7974C69.9556 18.604 69.3486 18.4214 68.6182 18.2495C67.4688 17.9702 66.4644 17.6641 65.605 17.3311C64.7456 16.998 64.0259 16.606 63.4458 16.1548C62.8765 15.7036 62.4468 15.1719 62.1567 14.5596C61.8774 13.9365 61.7378 13.2114 61.7378 12.3843C61.7378 11.5894 61.9097 10.8643 62.2534 10.209C62.6079 9.54297 63.1021 8.96826 63.7358 8.48486C64.3804 8.00146 65.1377 7.63086 66.0078 7.37305C66.8887 7.10449 67.8501 6.97021 68.8921 6.97021C70.4067 6.97021 71.7334 7.21191 72.8721 7.69531C74.0215 8.17871 74.9131 8.85547 75.5469 9.72559C76.1807 10.585 76.4976 11.6055 76.4976 12.7871H72.2275C72.2275 12.293 72.0986 11.8472 71.8408 11.4497C71.5938 11.0415 71.2231 10.7139 70.729 10.4668C70.2349 10.2197 69.6226 10.0962 68.8921 10.0962C68.1938 10.0962 67.6138 10.2036 67.1519 10.4185C66.7007 10.6226 66.3623 10.8911 66.1367 11.2241C65.9219 11.5464 65.8145 11.8901 65.8145 12.2554C65.8145 12.5562 65.8789 12.8301 66.0078 13.0771C66.1475 13.3135 66.3623 13.5337 66.6523 13.7378C66.9531 13.9312 67.3452 14.1191 67.8286 14.3018C68.312 14.4736 68.8975 14.6509 69.585 14.8335C70.7236 15.0913 71.7227 15.3975 72.582 15.752C73.4521 16.0957 74.1719 16.5093 74.7412 16.9927C75.3213 17.4761 75.7563 18.04 76.0464 18.6846C76.3364 19.3291 76.4814 20.0757 76.4814 20.9243C76.4814 21.7622 76.3096 22.5142 75.9658 23.1802C75.6221 23.8354 75.1226 24.394 74.4673 24.856C73.8228 25.3071 73.0493 25.6562 72.147 25.9033C71.2554 26.1396 70.2563 26.2578 69.1499 26.2578C68.1616 26.2578 67.1895 26.1396 66.2334 25.9033C65.2773 25.667 64.4126 25.3018 63.6392 24.8076C62.8657 24.3027 62.248 23.6636 61.7861 22.8901C61.3242 22.1167 61.0933 21.1929 61.0933 20.1187H65.3794C65.3794 20.6558 65.4653 21.1177 65.6372 21.5044C65.8198 21.8911 66.0776 22.208 66.4106 22.4551C66.7544 22.6914 67.1733 22.8687 67.6675 22.9868C68.1616 23.0942 68.7202 23.1479 69.3433 23.1479C70.0737 23.1479 70.6646 23.0459 71.1157 22.8418C71.5669 22.6377 71.8892 22.3745 72.0825 22.0522C72.2866 21.73 72.3887 21.3916 72.3887 21.0371ZM89.9521 21.0371C89.9521 20.7041 89.8877 20.4033 89.7588 20.1348C89.6406 19.8662 89.4419 19.6245 89.1626 19.4097C88.8833 19.1948 88.4966 18.9907 88.0024 18.7974C87.519 18.604 86.9121 18.4214 86.1816 18.2495C85.0322 17.9702 84.0278 17.6641 83.1685 17.3311C82.3091 16.998 81.5894 16.606 81.0093 16.1548C80.4399 15.7036 80.0103 15.1719 79.7202 14.5596C79.4409 13.9365 79.3013 13.2114 79.3013 12.3843C79.3013 11.5894 79.4731 10.8643 79.8169 10.209C80.1714 9.54297 80.6655 8.96826 81.2993 8.48486C81.9438 8.00146 82.7012 7.63086 83.5713 7.37305C84.4521 7.10449 85.4136 6.97021 86.4556 6.97021C87.9702 6.97021 89.2969 7.21191 90.4355 7.69531C91.585 8.17871 92.4766 8.85547 93.1104 9.72559C93.7441 10.585 94.061 11.6055 94.061 12.7871H89.791C89.791 12.293 89.6621 11.8472 89.4043 11.4497C89.1572 11.0415 88.7866 10.7139 88.2925 10.4668C87.7983 10.2197 87.186 10.0962 86.4556 10.0962C85.7573 10.0962 85.1772 10.2036 84.7153 10.4185C84.2642 10.6226 83.9258 10.8911 83.7002 11.2241C83.4854 11.5464 83.3779 11.8901 83.3779 12.2554C83.3779 12.5562 83.4424 12.8301 83.5713 13.0771C83.7109 13.3135 83.9258 13.5337 84.2158 13.7378C84.5166 13.9312 84.9087 14.1191 85.3921 14.3018C85.8755 14.4736 86.4609 14.6509 87.1484 14.8335C88.2871 15.0913 89.2861 15.3975 90.1455 15.752C91.0156 16.0957 91.7354 16.5093 92.3047 16.9927C92.8848 17.4761 93.3198 18.04 93.6099 18.6846C93.8999 19.3291 94.0449 20.0757 94.0449 20.9243C94.0449 21.7622 93.873 22.5142 93.5293 23.1802C93.1855 23.8354 92.686 24.394 92.0308 24.856C91.3862 25.3071 90.6128 25.6562 89.7104 25.9033C88.8188 26.1396 87.8198 26.2578 86.7134 26.2578C85.7251 26.2578 84.7529 26.1396 83.7969 25.9033C82.8408 25.667 81.9761 25.3018 81.2026 24.8076C80.4292 24.3027 79.8115 23.6636 79.3496 22.8901C78.8877 22.1167 78.6567 21.1929 78.6567 20.1187H82.9429C82.9429 20.6558 83.0288 21.1177 83.2007 21.5044C83.3833 21.8911 83.6411 22.208 83.9741 22.4551C84.3179 22.6914 84.7368 22.8687 85.231 22.9868C85.7251 23.0942 86.2837 23.1479 86.9067 23.1479C87.6372 23.1479 88.228 23.0459 88.6792 22.8418C89.1304 22.6377 89.4526 22.3745 89.646 22.0522C89.8501 21.73 89.9521 21.3916 89.9521 21.0371ZM110.593 22.6484V26H99.8296V22.6484H110.593ZM101.264 7.22803V26H96.9937V7.22803H101.264ZM109.208 14.624V17.9756H99.8296V14.624H109.208ZM110.593 7.22803V10.5957H99.8296V7.22803H110.593ZM114.944 7.22803H118.537L123.597 20.4893L128.64 7.22803H132.233L125.031 26H122.163L114.944 7.22803ZM112.946 7.22803H116.555L117.216 21.3916V26H112.946V7.22803ZM130.654 7.22803H134.28V26H129.994V21.3916L130.654 7.22803ZM145.752 17.9595H140.548L140.516 15.0913H145.14C145.806 15.0913 146.365 15.0107 146.816 14.8496C147.278 14.6777 147.622 14.4307 147.847 14.1084C148.073 13.7754 148.186 13.3726 148.186 12.8999C148.186 12.3521 148.073 11.9116 147.847 11.5786C147.622 11.2349 147.283 10.9878 146.832 10.8374C146.381 10.6763 145.817 10.5957 145.14 10.5957H142.062V26H137.792V7.22803H144.85C146.042 7.22803 147.106 7.33545 148.041 7.55029C148.975 7.75439 149.77 8.07129 150.425 8.50098C151.091 8.91992 151.596 9.45703 151.94 10.1123C152.284 10.7568 152.456 11.5195 152.456 12.4004C152.456 13.1631 152.273 13.8774 151.908 14.5435C151.542 15.2095 150.957 15.752 150.151 16.1709C149.356 16.5898 148.304 16.8047 146.993 16.8154L145.752 17.9595ZM145.559 26H139.42L141.015 22.6484H145.559C146.279 22.6484 146.864 22.5518 147.315 22.3584C147.767 22.1543 148.1 21.8804 148.314 21.5366C148.54 21.1929 148.653 20.8062 148.653 20.3765C148.653 19.8823 148.556 19.458 148.363 19.1035C148.169 18.7383 147.858 18.459 147.428 18.2656C146.999 18.0615 146.44 17.9595 145.752 17.9595H141.74L141.756 15.0913H146.719L147.702 16.2354C148.959 16.1816 149.969 16.375 150.731 16.8154C151.494 17.2451 152.047 17.8037 152.391 18.4912C152.746 19.1787 152.923 19.8877 152.923 20.6182C152.923 21.542 152.762 22.3423 152.439 23.019C152.117 23.6851 151.639 24.2437 151.005 24.6948C150.382 25.1353 149.614 25.4629 148.701 25.6777C147.788 25.8926 146.741 26 145.559 26ZM168.956 22.6484V26H158.772V22.6484H168.956ZM160.206 7.22803V26H155.936V7.22803H160.206ZM184.875 22.6484V26H174.112V22.6484H184.875ZM175.546 7.22803V26H171.276V7.22803H175.546ZM183.49 14.624V17.9756H174.112V14.624H183.49ZM184.875 7.22803V10.5957H174.112V7.22803H184.875ZM187.212 7.22803H194.833C195.983 7.22803 197.02 7.35156 197.943 7.59863C198.878 7.83496 199.667 8.19482 200.312 8.67822C200.967 9.15088 201.467 9.7417 201.811 10.4507C202.154 11.1489 202.326 11.96 202.326 12.8838C202.326 13.9365 202.144 14.8281 201.778 15.5586C201.413 16.2891 200.903 16.8906 200.248 17.3633C199.592 17.8252 198.824 18.2065 197.943 18.5073L196.558 19.2969H189.967L189.935 15.9292H194.882C195.58 15.9292 196.166 15.8218 196.638 15.6069C197.111 15.3921 197.465 15.0859 197.702 14.6885C197.938 14.291 198.056 13.8237 198.056 13.2866C198.056 12.728 197.933 12.25 197.686 11.8525C197.449 11.4443 197.089 11.1328 196.606 10.918C196.133 10.7031 195.542 10.5957 194.833 10.5957H191.498V26H187.212V7.22803ZM198.475 26L193.899 17.7017L198.411 17.6694L203.067 25.8066V26H198.475ZM218.021 7.22803V26H213.75V7.22803H218.021ZM226.045 15.0913V18.4429H216.828V15.0913H226.045ZM226.996 7.22803V10.5957H216.828V7.22803H226.996ZM233.876 7.22803V26H229.606V7.22803H233.876ZM250.714 22.6484V26H240.531V22.6484H250.714ZM241.965 7.22803V26H237.695V7.22803H241.965ZM266.634 22.6484V26H255.871V22.6484H266.634ZM257.305 7.22803V26H253.035V7.22803H257.305ZM265.249 14.624V17.9756H255.871V14.624H265.249ZM266.634 7.22803V10.5957H255.871V7.22803H266.634Z" fill="black"/>
</g>
<defs>
<clipPath id="clip0_48_15">
<rect width="281" height="32" fill="white"/>
</clipPath>
</defs>
</svg>
