<svg width="281" height="33" viewBox="0 0 281 33" fill="none" xmlns="http://www.w3.org/2000/svg">
<g clip-path="url(#clip0_48_15)">
<rect y="1" width="281" height="32" rx="6" fill="#5A5A5A"/>
<path d="M0 7C0 3.68629 2.68629 1 6 1H48V33H6C2.68629 33 0 30.3137 0 27V7Z" fill="#0374B5"/>
<path fill-rule="evenodd" clip-rule="evenodd" d="M37 18H11V29H37V18Z" fill="#232022"/>
<path fill-rule="evenodd" clip-rule="evenodd" d="M21.5625 11.3125V4.8125L15.0625 11.3125H21.5625Z" fill="white"/>
<path fill-rule="evenodd" clip-rule="evenodd" d="M15.0625 12.9375V16.1875H31.3125V4.8125H23.1875V12.9375H15.0625Z" fill="white"/>
<path fill-rule="evenodd" clip-rule="evenodd" d="M21.5182 21.8775C21.5182 21.2787 22.024 21.0625 22.9356 21.0625C22.9443 21.0625 23.5699 21.0625 24.8125 21.0625V19.4375C23.6143 19.4375 22.9968 19.4375 22.96 19.4375C21.2017 19.4375 19.9375 20.1836 19.9375 21.7938C19.9375 23.1986 20.6193 23.8095 22.3283 24.1761C23.5801 24.4446 23.9938 24.684 23.9938 25.203C23.9938 25.722 23.4124 25.9375 22.3283 25.9375C22.311 25.9375 21.6765 25.9375 20.425 25.9375V27.5625C21.6852 27.5625 22.3196 27.5625 22.3283 27.5625C25.625 27.5625 25.625 25.9375 25.625 25.203C25.625 24.1761 24.8454 23.3712 23.4454 22.9261C22.0453 22.4811 21.5182 22.4762 21.5182 21.8775Z" fill="#0374B5"/>
<path fill-rule="evenodd" clip-rule="evenodd" d="M30.5 22.6875L32.9034 19.4375H34.5625V27.5625H32.9375V22.2L30.5 25.125L28.0625 22.2V27.5625H26.4375V19.4375H27.9585L30.5 22.6875Z" fill="#0374B5"/>
<path fill-rule="evenodd" clip-rule="evenodd" d="M16.9313 24.3125L15.8687 21.7125L14.8188 24.3125H16.9313ZM15.2396 19.4375H16.5088L19.9375 27.5625H18.15L17.3375 25.9375H14.4125L13.6 27.5625H11.8125L15.2396 19.4375Z" fill="#0374B5"/>
<path d="M68.5103 13.3408L63.8374 26H60.0425L66.627 9.50342H69.1758L68.5103 13.3408ZM72.9565 26L68.2271 13.3267L67.5615 9.50342H70.1387L76.7373 26H72.9565ZM72.8008 19.8687V22.6016H63.5259V19.8687H72.8008ZM87.584 21.6387C87.584 21.346 87.5273 21.0817 87.4141 20.8457C87.3102 20.6097 87.1356 20.3973 86.8901 20.2085C86.6447 20.0197 86.3049 19.8403 85.8706 19.6704C85.4458 19.5005 84.9124 19.34 84.2705 19.189C83.2604 18.9435 82.3778 18.6745 81.6226 18.3818C80.8674 18.0892 80.2349 17.7446 79.7251 17.3481C79.2248 16.9517 78.8472 16.4844 78.5923 15.9463C78.3468 15.3988 78.2241 14.7616 78.2241 14.0347C78.2241 13.3361 78.3752 12.6989 78.6772 12.123C78.9888 11.5378 79.423 11.0327 79.98 10.6079C80.5464 10.1831 81.2119 9.85742 81.9766 9.63086C82.7507 9.39486 83.5955 9.27686 84.5112 9.27686C85.8423 9.27686 87.0081 9.48926 88.0088 9.91406C89.0189 10.3389 89.8024 10.9336 90.3594 11.6982C90.9163 12.4535 91.1948 13.3503 91.1948 14.3887H87.4424C87.4424 13.9544 87.3291 13.5627 87.1025 13.2134C86.8854 12.8547 86.5597 12.5667 86.1255 12.3496C85.6912 12.1325 85.1532 12.0239 84.5112 12.0239C83.8976 12.0239 83.3879 12.1183 82.9819 12.3071C82.5854 12.4865 82.2881 12.7225 82.0898 13.0151C81.901 13.2983 81.8066 13.6004 81.8066 13.9214C81.8066 14.1857 81.8633 14.4264 81.9766 14.6436C82.0993 14.8512 82.2881 15.0448 82.543 15.2241C82.8073 15.394 83.1519 15.5592 83.5767 15.7197C84.0015 15.8708 84.516 16.0265 85.1201 16.187C86.1208 16.4136 86.9987 16.6826 87.7539 16.9941C88.5186 17.2962 89.151 17.6597 89.6514 18.0845C90.1611 18.5093 90.5435 19.0049 90.7983 19.5713C91.0532 20.1377 91.1807 20.7938 91.1807 21.5396C91.1807 22.2759 91.0296 22.9367 90.7275 23.522C90.4255 24.0978 89.9865 24.5887 89.4106 24.9946C88.8442 25.3911 88.1646 25.6979 87.3716 25.915C86.5881 26.1227 85.7101 26.2266 84.7378 26.2266C83.8693 26.2266 83.015 26.1227 82.1748 25.915C81.3346 25.7074 80.5747 25.3864 79.895 24.9521C79.2153 24.5085 78.6725 23.9468 78.2666 23.2671C77.8607 22.5874 77.6577 21.7756 77.6577 20.8315H81.4243C81.4243 21.3035 81.4998 21.7095 81.6509 22.0493C81.8114 22.3892 82.0379 22.6676 82.3306 22.8848C82.6326 23.0924 83.0008 23.2482 83.4351 23.3521C83.8693 23.4465 84.3602 23.4937 84.9077 23.4937C85.5496 23.4937 86.0688 23.404 86.4653 23.2246C86.8618 23.0452 87.145 22.814 87.3149 22.5308C87.4943 22.2476 87.584 21.9502 87.584 21.6387ZM103.019 21.6387C103.019 21.346 102.962 21.0817 102.849 20.8457C102.745 20.6097 102.57 20.3973 102.325 20.2085C102.079 20.0197 101.739 19.8403 101.305 19.6704C100.88 19.5005 100.347 19.34 99.7051 19.189C98.695 18.9435 97.8123 18.6745 97.0571 18.3818C96.3019 18.0892 95.6694 17.7446 95.1597 17.3481C94.6593 16.9517 94.2817 16.4844 94.0269 15.9463C93.7814 15.3988 93.6587 14.7616 93.6587 14.0347C93.6587 13.3361 93.8097 12.6989 94.1118 12.123C94.4233 11.5378 94.8576 11.0327 95.4146 10.6079C95.981 10.1831 96.6465 9.85742 97.4111 9.63086C98.1852 9.39486 99.0301 9.27686 99.9458 9.27686C101.277 9.27686 102.443 9.48926 103.443 9.91406C104.453 10.3389 105.237 10.9336 105.794 11.6982C106.351 12.4535 106.629 13.3503 106.629 14.3887H102.877C102.877 13.9544 102.764 13.5627 102.537 13.2134C102.32 12.8547 101.994 12.5667 101.56 12.3496C101.126 12.1325 100.588 12.0239 99.9458 12.0239C99.3322 12.0239 98.8224 12.1183 98.4165 12.3071C98.02 12.4865 97.7227 12.7225 97.5244 13.0151C97.3356 13.2983 97.2412 13.6004 97.2412 13.9214C97.2412 14.1857 97.2979 14.4264 97.4111 14.6436C97.5339 14.8512 97.7227 15.0448 97.9775 15.2241C98.2419 15.394 98.5864 15.5592 99.0112 15.7197C99.436 15.8708 99.9505 16.0265 100.555 16.187C101.555 16.4136 102.433 16.6826 103.188 16.9941C103.953 17.2962 104.586 17.6597 105.086 18.0845C105.596 18.5093 105.978 19.0049 106.233 19.5713C106.488 20.1377 106.615 20.7938 106.615 21.5396C106.615 22.2759 106.464 22.9367 106.162 23.522C105.86 24.0978 105.421 24.5887 104.845 24.9946C104.279 25.3911 103.599 25.6979 102.806 25.915C102.023 26.1227 101.145 26.2266 100.172 26.2266C99.3039 26.2266 98.4495 26.1227 97.6094 25.915C96.7692 25.7074 96.0093 25.3864 95.3296 24.9521C94.6499 24.5085 94.1071 23.9468 93.7012 23.2671C93.2952 22.5874 93.0923 21.7756 93.0923 20.8315H96.8589C96.8589 21.3035 96.9344 21.7095 97.0854 22.0493C97.2459 22.3892 97.4725 22.6676 97.7651 22.8848C98.0672 23.0924 98.4354 23.2482 98.8696 23.3521C99.3039 23.4465 99.7948 23.4937 100.342 23.4937C100.984 23.4937 101.503 23.404 101.9 23.2246C102.296 23.0452 102.58 22.814 102.75 22.5308C102.929 22.2476 103.019 21.9502 103.019 21.6387ZM121.158 23.0547V26H111.699V23.0547H121.158ZM112.959 9.50342V26H109.207V9.50342H112.959ZM119.94 16.0029V18.9482H111.699V16.0029H119.94ZM121.158 9.50342V12.4629H111.699V9.50342H121.158ZM124.981 9.50342H128.139L132.585 21.1572L137.017 9.50342H140.175L133.845 26H131.325L124.981 9.50342ZM123.225 9.50342H126.397L126.978 21.9502V26H123.225V9.50342ZM138.787 9.50342H141.973V26H138.207V21.9502L138.787 9.50342ZM152.055 18.9341H147.481L147.453 16.4136H151.517C152.102 16.4136 152.593 16.3428 152.99 16.2012C153.396 16.0501 153.698 15.833 153.896 15.5498C154.094 15.2572 154.193 14.9032 154.193 14.4878C154.193 14.0063 154.094 13.6193 153.896 13.3267C153.698 13.0246 153.4 12.8075 153.004 12.6753C152.607 12.5337 152.112 12.4629 151.517 12.4629H148.812V26H145.06V9.50342H151.262C152.31 9.50342 153.245 9.59782 154.066 9.78662C154.887 9.96598 155.586 10.2445 156.162 10.6221C156.747 10.9902 157.191 11.4622 157.493 12.0381C157.795 12.6045 157.946 13.2747 157.946 14.0488C157.946 14.7191 157.785 15.3468 157.464 15.9321C157.143 16.5174 156.629 16.9941 155.921 17.3623C155.222 17.7305 154.297 17.9193 153.146 17.9287L152.055 18.9341ZM151.885 26H146.49L147.892 23.0547H151.885C152.518 23.0547 153.032 22.9697 153.429 22.7998C153.825 22.6204 154.118 22.3797 154.307 22.0776C154.505 21.7756 154.604 21.4357 154.604 21.0581C154.604 20.6239 154.519 20.251 154.349 19.9395C154.179 19.6185 153.905 19.373 153.528 19.2031C153.15 19.0238 152.659 18.9341 152.055 18.9341H148.529L148.543 16.4136H152.905L153.769 17.4189C154.873 17.3717 155.76 17.5417 156.431 17.9287C157.101 18.3063 157.587 18.7972 157.889 19.4014C158.201 20.0055 158.356 20.6286 158.356 21.2705C158.356 22.0824 158.215 22.7856 157.932 23.3804C157.648 23.9657 157.228 24.4565 156.671 24.853C156.124 25.2401 155.449 25.528 154.646 25.7168C153.844 25.9056 152.924 26 151.885 26ZM172.446 23.0547V26H163.497V23.0547H172.446ZM164.757 9.50342V26H161.004V9.50342H164.757ZM186.436 23.0547V26H176.977V23.0547H186.436ZM178.237 9.50342V26H174.485V9.50342H178.237ZM185.218 16.0029V18.9482H176.977V16.0029H185.218ZM186.436 9.50342V12.4629H176.977V9.50342H186.436ZM188.489 9.50342H195.187C196.197 9.50342 197.108 9.61198 197.92 9.8291C198.741 10.0368 199.435 10.353 200.001 10.7778C200.577 11.1932 201.016 11.7124 201.318 12.3354C201.62 12.9491 201.771 13.6618 201.771 14.4736C201.771 15.3988 201.611 16.1823 201.29 16.8242C200.969 17.4661 200.521 17.9948 199.945 18.4102C199.369 18.8161 198.694 19.1512 197.92 19.4155L196.702 20.1094H190.911L190.882 17.1499H195.229C195.843 17.1499 196.358 17.0555 196.773 16.8667C197.188 16.6779 197.5 16.4089 197.708 16.0596C197.915 15.7103 198.019 15.2996 198.019 14.8276C198.019 14.3368 197.91 13.9167 197.693 13.5674C197.486 13.2087 197.169 12.9349 196.745 12.7461C196.329 12.5573 195.81 12.4629 195.187 12.4629H192.256V26H188.489V9.50342ZM198.387 26L194.366 18.7075L198.331 18.6792L202.423 25.8301V26H198.387ZM215.563 9.50342V26H211.811V9.50342H215.563ZM222.615 16.4136V19.3589H214.516V16.4136H222.615ZM223.451 9.50342V12.4629H214.516V9.50342H223.451ZM229.497 9.50342V26H225.745V9.50342H229.497ZM244.294 23.0547V26H235.345V23.0547H244.294ZM236.605 9.50342V26H232.853V9.50342H236.605ZM258.285 23.0547V26H248.826V23.0547H258.285ZM250.086 9.50342V26H246.333V9.50342H250.086ZM257.067 16.0029V18.9482H248.826V16.0029H257.067ZM258.285 9.50342V12.4629H248.826V9.50342H258.285Z" fill="#EFFFF8"/>
</g>
<defs>
<clipPath id="clip0_48_15">
<rect width="281" height="33" fill="white"/>
</clipPath>
</defs>
</svg>
