<svg width="22" height="22" viewBox="0 0 22 22" fill="none" xmlns="http://www.w3.org/2000/svg">
<g clip-path="url(#clip0_53_30)">
<path d="M20.6249 8.93744L19.6033 8.60331C19.4073 7.90072 19.1317 7.23175 18.7803 6.61024L19.2643 5.65326C19.8012 5.11636 19.8012 4.24595 19.2643 3.70764L18.2922 2.73557C17.7553 2.19867 16.8849 2.19867 16.348 2.73557L15.3917 3.22094C14.7702 2.86897 14.1013 2.59322 13.3987 2.39728L13.0625 1.37431C13.0624 0.615308 12.4464 0 11.6875 0H10.3125C9.55345 0 8.93744 0.615308 8.93744 1.37431L8.60402 2.39728C7.90276 2.5918 7.23725 2.86615 6.61715 3.21607L5.65263 2.73557C5.11573 2.19867 4.24532 2.19867 3.70842 2.73557L2.73557 3.70764C2.19867 4.24525 2.19867 5.11565 2.73557 5.65326L3.21544 6.61715C2.86685 7.2345 2.59392 7.89655 2.39869 8.59372L1.37501 8.93744C0.616015 8.93744 0 9.55345 0 10.3125V11.6875C0 12.4472 0.616015 13.0625 1.37501 13.0625L2.3994 13.4062C2.59463 14.1033 2.86827 14.7668 3.21615 15.3828L2.73628 16.348C2.19938 16.8843 2.19938 17.7553 2.73628 18.2922L3.70842 19.2643C4.24532 19.8012 5.11573 19.8012 5.65263 19.2643L6.61715 18.7845C7.23387 19.1324 7.89655 19.4053 8.59372 19.6005L8.93744 20.6256C8.93744 21.3846 9.55345 21.9999 10.3125 21.9999H11.6875C12.4465 21.9999 13.0625 21.3846 13.0625 20.6256L13.4062 19.6005C14.106 19.4053 14.7702 19.1302 15.3896 18.7803L16.348 19.265C16.8849 19.8019 17.7553 19.8019 18.2922 19.265L19.2643 18.2928C19.8012 17.7559 19.8012 16.8848 19.2643 16.3486L18.779 15.3909C19.1309 14.7701 19.4067 14.1019 19.6026 13.3993L20.625 13.0624C21.384 13.0624 22 12.4471 22 11.6874V10.3124C21.9998 9.55345 21.3839 8.93744 20.6249 8.93744ZM11 15.1256C8.72225 15.1256 6.875 13.2783 6.875 11C6.875 8.72225 8.72233 6.87429 11 6.87429C13.2776 6.87429 15.1249 8.72225 15.1249 11C15.1249 13.2789 13.2776 15.1256 11 15.1256Z" fill="#D1D5D7"/>
<path d="M10.9999 2.06299C6.06373 2.06299 2.0625 6.06422 2.0625 11.0004C2.0625 15.9366 6.06373 19.9379 10.9999 19.9379C15.9361 19.9379 19.9374 15.9373 19.9374 11.0004C19.9374 6.06422 15.9361 2.06299 10.9999 2.06299ZM10.9999 13.7505C9.48123 13.7505 8.24999 12.5191 8.24999 11.0005C8.24999 9.48188 9.48131 8.25056 10.9999 8.25056C12.5186 8.25056 13.7499 9.48188 13.7499 11.0005C13.7499 12.5191 12.5186 13.7505 10.9999 13.7505Z" fill="#EBEBEB"/>
<path d="M11 6.18799C8.3421 6.18799 6.1875 8.34259 6.1875 11.0005C6.1875 13.6583 8.3421 15.8129 11 15.8129C13.6578 15.8129 15.8124 13.6583 15.8124 11.0005C15.8124 8.34259 13.6578 6.18799 11 6.18799ZM11 13.7505C9.48127 13.7505 8.25002 12.5192 8.25002 11.0005C8.25002 9.48191 9.48135 8.25059 11 8.25059C12.5186 8.25059 13.7499 9.48191 13.7499 11.0005C13.7499 12.5192 12.5186 13.7505 11 13.7505Z" fill="#D1D5D7"/>
</g>
<defs>
<clipPath id="clip0_53_30">
<rect width="22" height="22" fill="white"/>
</clipPath>
</defs>
</svg>
