<svg width="17" height="17" viewBox="0 0 17 17" fill="none" xmlns="http://www.w3.org/2000/svg">
<g clip-path="url(#clip0_53_30)">
<path d="M15.9374 6.9062L15.148 6.64801C14.9966 6.1051 14.7836 5.58817 14.5121 5.10791L14.8861 4.36843C15.301 3.95355 15.301 3.28096 14.8861 2.86499L14.1349 2.11385C13.72 1.69897 13.0474 1.69897 12.6325 2.11385L11.8936 2.48891C11.4133 2.21693 10.8965 2.00385 10.3535 1.85244L10.0937 1.06197C10.0937 0.475465 9.61767 0 9.03123 0H7.96871C7.38221 0 6.9062 0.475465 6.9062 1.06197L6.64856 1.85244C6.10668 2.00276 5.59242 2.21475 5.11325 2.48514L4.36794 2.11385C3.95306 1.69897 3.28048 1.69897 2.8656 2.11385L2.11385 2.86499C1.69897 3.28042 1.69897 3.953 2.11385 4.36843L2.48466 5.11325C2.2153 5.5903 2.0044 6.10188 1.85354 6.64061L1.06251 6.9062C0.476011 6.9062 0 7.38221 0 7.96871V9.03123C0 9.61827 0.476011 10.0937 1.06251 10.0937L1.85408 10.3593C2.00494 10.898 2.21639 11.4107 2.4852 11.8867L2.1144 12.6325C1.69952 13.0469 1.69952 13.72 2.1144 14.1349L2.8656 14.8861C3.28048 15.301 3.95306 15.301 4.36794 14.8861L5.11325 14.5153C5.58981 14.7841 6.10188 14.995 6.64061 15.1459L6.9062 15.938C6.9062 16.5245 7.38221 16.9999 7.96871 16.9999H9.03123C9.61773 16.9999 10.0937 16.5245 10.0937 15.938L10.3593 15.1459C10.9001 14.995 11.4133 14.7825 11.892 14.5121L12.6325 14.8866C13.0474 15.3015 13.72 15.3015 14.1349 14.8866L14.8861 14.1354C15.301 13.7205 15.301 13.0474 14.8861 12.633L14.511 11.893C14.783 11.4133 14.9961 10.8969 15.1475 10.354L15.9375 10.0937C16.524 10.0937 17 9.61821 17 9.03116V7.96865C16.9999 7.38221 16.5239 6.9062 15.9374 6.9062ZM8.49997 11.688C6.73992 11.688 5.3125 10.2605 5.3125 8.49997C5.3125 6.73992 6.73998 5.31195 8.49997 5.31195C10.26 5.31195 11.6874 6.73992 11.6874 8.49997C11.6874 10.261 10.26 11.688 8.49997 11.688Z" fill="#D1D5D7"/>
<path d="M8.49995 1.59424C4.68561 1.59424 1.59375 4.6861 1.59375 8.50044C1.59375 12.3148 4.68561 15.4066 8.49995 15.4066C12.3143 15.4066 15.4062 12.3153 15.4062 8.50044C15.4062 4.6861 12.3143 1.59424 8.49995 1.59424ZM8.49995 10.6255C7.32641 10.6255 6.37499 9.67399 6.37499 8.5005C6.37499 7.32702 7.32647 6.37554 8.49995 6.37554C9.67344 6.37554 10.6249 7.32702 10.6249 8.5005C10.6249 9.67399 9.67344 10.6255 8.49995 10.6255Z" fill="#EBEBEB"/>
<path d="M8.49998 4.78174C6.44617 4.78174 4.78125 6.44665 4.78125 8.50047C4.78125 10.5543 6.44617 12.2192 8.49998 12.2192C10.5538 12.2192 12.2187 10.5543 12.2187 8.50047C12.2187 6.44665 10.5537 4.78174 8.49998 4.78174ZM8.49998 10.6255C7.32643 10.6255 6.37502 9.67401 6.37502 8.50053C6.37502 7.32704 7.32649 6.37557 8.49998 6.37557C9.67347 6.37557 10.6249 7.32704 10.6249 8.50053C10.6249 9.67401 9.67347 10.6255 8.49998 10.6255Z" fill="#D1D5D7"/>
</g>
<defs>
<clipPath id="clip0_53_30">
<rect width="17" height="17" fill="white"/>
</clipPath>
</defs>
</svg>
